<svg width="16" height="18" viewBox="0 0 16 18" fill="none" xmlns="http://www.w3.org/2000/svg">
<path d="M0.499841 12.0419C0.358174 11.0586 1.43317 10.0169 2.91651 9.71691C4.39151 9.41691 5.70817 9.95858 5.85817 10.9419C6.00817 11.9169 4.93317 12.9669 3.44984 13.2752C1.97484 13.5836 0.658174 13.0252 0.499841 12.0419ZM0.499841 6.08358C0.658174 5.09191 1.97484 4.54191 3.44984 4.83358C4.93317 5.15024 6.00817 6.19191 5.85817 7.17524C5.70817 8.16691 4.39151 8.70858 2.91651 8.40024C1.43317 8.10024 0.358174 7.05858 0.499841 6.08358ZM4.33317 16.5002C3.92484 15.5502 4.66651 14.2586 5.95817 13.5836C7.27484 12.9502 8.65817 13.1669 9.06651 14.1086C9.47484 15.0502 8.74151 16.3336 7.43317 16.9919C6.12484 17.6502 4.73317 17.4169 4.33317 16.5002ZM4.33317 1.50024C4.73317 0.583578 6.12484 0.350245 7.43317 1.00858C8.74151 1.66691 9.47484 2.95024 9.06651 3.89191C8.65817 4.83358 7.27484 5.05024 5.95817 4.41691C4.66651 3.74191 3.92484 2.45024 4.33317 1.50024ZM13.3165 2.89191C14.0998 2.85858 14.9665 3.45858 15.2915 4.17524C15.9748 5.66691 14.5582 7.43358 14.5582 9.09191C14.5582 10.7502 16.0332 12.5336 15.2915 14.0002C14.8832 14.8336 13.7998 15.4086 12.8998 15.3002C11.6582 15.1502 10.9915 13.6586 10.0832 12.7752C8.90817 11.6002 6.69984 10.7669 6.69984 9.09191C6.69984 7.42524 8.87484 6.54191 10.0832 5.41691C11.0998 4.49191 11.9582 2.95024 13.3165 2.89191Z" fill="black"/>
</svg>
