<svg width="16" height="18" viewBox="0 0 16 18" fill="none" xmlns="http://www.w3.org/2000/svg">
<path d="M15.5002 5.95809C15.6418 6.94143 14.5668 7.98309 13.0835 8.28309C11.6085 8.58309 10.2918 8.04142 10.1418 7.05809C9.99183 6.08309 11.0668 5.03309 12.5502 4.72476C14.0252 4.41643 15.3418 4.97476 15.5002 5.95809ZM15.5002 11.9164C15.3418 12.9081 14.0252 13.4581 12.5502 13.1664C11.0668 12.8498 9.99183 11.8081 10.1418 10.8248C10.2918 9.83309 11.6085 9.29142 13.0835 9.59976C14.5668 9.89976 15.6418 10.9414 15.5002 11.9164ZM11.6668 1.49976C12.0752 2.44976 11.3335 3.74143 10.0418 4.41643C8.72516 5.04976 7.34183 4.83309 6.93349 3.89142C6.52516 2.94976 7.25849 1.66643 8.56683 1.00809C9.87516 0.349759 11.2668 0.583093 11.6668 1.49976ZM11.6668 16.4998C11.2668 17.4164 9.87516 17.6498 8.56683 16.9914C7.25849 16.3331 6.52516 15.0498 6.93349 14.1081C7.34183 13.1664 8.72516 12.9498 10.0418 13.5831C11.3335 14.2581 12.0752 15.5498 11.6668 16.4998ZM2.6835 15.1081C1.90016 15.1414 1.03349 14.5414 0.708495 13.8248C0.0251617 12.3331 1.44183 10.5664 1.44183 8.90809C1.44183 7.24976 -0.0331717 5.46642 0.708495 3.99976C1.11683 3.16643 2.20016 2.59143 3.10016 2.69976C4.34183 2.84976 5.00849 4.34143 5.91683 5.22476C7.09183 6.39976 9.30016 7.23309 9.30016 8.90809C9.30016 10.5748 7.12516 11.4581 5.91683 12.5831C4.90016 13.5081 4.04183 15.0498 2.6835 15.1081Z" fill="black"/>
</svg>
